<?xml version="1.0" standalone="no"?>
<!DOCTYPE svg PUBLIC "-//W3C//DTD SVG 20010904//EN"
 "http://www.w3.org/TR/2001/REC-SVG-20010904/DTD/svg10.dtd">
<svg version="1.0" xmlns="http://www.w3.org/2000/svg"
 width="512.000000pt" height="512.000000pt" viewBox="0 0 512.000000 512.000000"
 preserveAspectRatio="xMidYMid meet">

<g transform="translate(0.000000,512.000000) scale(0.100000,-0.100000)"
fill="#000000" stroke="none">
<path d="M1450 4480 l-1105 -639 0 -1281 0 -1281 1108 -640 1108 -639 1107
639 1107 639 0 1282 0 1282 -1100 635 c-605 349 -1104 637 -1110 639 -5 1
-507 -285 -1115 -636z m1999 -219 c692 -400 870 -506 859 -516 -21 -19 -1736
-1005 -1748 -1005 -10 0 -1738 994 -1753 1009 -9 9 1742 1023 1758 1019 6 -2
404 -230 884 -507z m-1915 -1281 l876 -505 0 -1017 c0 -560 -2 -1018 -5 -1018
-4 0 -402 228 -885 507 l-880 508 0 1018 c0 621 4 1017 9 1015 5 -1 404 -230
885 -508z m2946 -508 l0 -1017 -879 -508 c-483 -279 -882 -507 -885 -507 -3 0
-6 458 -6 1018 l0 1017 878 507 c482 278 880 507 885 507 4 1 7 -457 7 -1017z"/>
</g>
</svg>
